<svg width="260" height="152" viewBox="0 0 260 152" fill="none" xmlns="http://www.w3.org/2000/svg">
<path d="M163.609 141.04C161.89 116.986 167.045 99.5586 167.045 85.8132M167.045 85.8132C156.049 84.2423 150.19 72.7223 148.636 67.1587M167.045 85.8132C169.99 85.8132 175.636 95.1405 180.79 95.6314C185.945 96.1223 195.518 93.6677 196.99 83.1132C198.463 72.5586 191.836 74.5223 187.172 61.7587C183.441 51.5478 180.054 47.6859 178.827 47.0314M178.827 47.0314C174.449 49.1783 167.045 41.8768 169.745 38.195M178.827 47.0314C179.587 46.6092 180.95 45.1847 182.675 43.1041M169.745 38.195C168.781 37.8093 167.319 37.3049 165.572 36.8204M169.745 38.195C170.582 37.2089 171.724 35.9536 173.089 34.5132M140.557 24.9405C140.714 20.2762 141.627 16.6905 143.727 16.5951C146.275 16.4792 148.72 20.7971 150.599 25.6516M140.557 24.9405C140.31 32.2686 141.927 42.2589 143.727 45.5587C146.672 50.9587 144.954 56.6041 135.136 54.8859C148.981 70.747 132.19 88.2677 118.445 85.8132C127.044 106.569 122.372 141.04 96.3541 131.222C91.0435 140.649 81.289 140.132 76.0495 134.659M140.557 24.9405C118.284 20.9082 113.599 28.8162 107.645 46.0496C80.8825 37.8114 77.945 59.5496 84.8177 72.8041C58.1579 84.4612 67.6359 107.659 77.945 113.059C70.4079 121.797 71.6023 130.013 76.0495 134.659M165.572 36.8204C162.131 35.866 157.582 34.9891 153.545 35.2496C152.941 32.6651 151.907 29.0285 150.599 25.6516M165.572 36.8204C168.152 33.4714 172.356 28.2349 175.807 24.4496M183.147 24.4496C183.261 23.0587 183.049 20.1787 181.281 19.786C180.527 19.6184 178.376 21.6319 175.807 24.4496M183.147 24.4496C182.891 24.6954 182.636 24.941 182.382 25.186M183.147 24.4496C184.711 22.9468 186.313 21.4316 187.909 19.9496M175.807 24.4496C166.991 19.2409 162.465 14.0155 150.599 25.6516M76.0495 134.659C74.3086 138.013 70.4341 145.9 68.8631 150.613M173.089 34.5132C175.138 38.4309 176.734 40.4786 182.675 43.1041M173.089 34.5132C174.484 33.0404 176.112 31.374 177.883 29.6041M182.675 43.1041C183.997 41.5103 185.532 39.5314 187.172 37.3229M177.883 29.6041C179.935 33.2898 181.612 35.1318 187.172 37.3229M177.883 29.6041C179.306 28.1827 180.821 26.6944 182.382 25.186M187.172 37.3229C188.396 35.6745 189.679 33.8982 190.976 32.0587M182.382 25.186C184.803 28.1154 186.394 29.6962 190.976 32.0587M190.976 32.0587C192.44 29.9809 193.922 27.8226 195.357 25.6769M187.909 19.9496C190.107 23.1251 191.95 24.1463 195.357 25.6769M187.909 19.9496C189.74 18.2482 191.563 16.5906 193.309 15.0458M195.357 25.6769C196.695 23.6771 197.991 21.6883 199.194 19.786M193.309 15.0458C194.971 17.3825 196.059 18.5738 199.194 19.786M193.309 15.0458C195.424 13.1732 197.427 11.4663 199.194 10.0479M199.194 19.786C200.773 17.2893 202.192 14.9416 203.332 12.9132M199.194 10.0479C202.857 7.10852 209.999 1 209.999 1C209.999 1 205.407 9.22083 203.332 12.9132M199.194 10.0479C200.347 11.5798 201.242 12.2181 203.332 12.9132" stroke="white" stroke-width="2" stroke-linecap="round" stroke-linejoin="round"/>
<ellipse cx="161.832" cy="50.7976" rx="2.7" ry="2.94545" transform="rotate(62.0172 161.832 50.7976)" fill="white"/>
<ellipse cx="190.828" cy="78.6732" rx="1.62905" ry="2.18289" transform="rotate(153.685 190.828 78.6732)" fill="white"/>
<path d="M48 63.5909C52.1597 59.992 52.6338 56.7971 52.6636 50.5818C52.6934 56.7971 53.1676 59.992 57.3273 63.5909C53.1676 67.1897 52.6934 70.3847 52.6636 76.6C52.6338 70.3847 52.1597 67.1897 48 63.5909Z" stroke="white" stroke-width="2" stroke-linecap="round" stroke-linejoin="round"/>
<path d="M97.582 20.3909C101.742 16.7921 102.216 13.5971 102.246 7.38184C102.275 13.5971 102.75 16.7921 106.909 20.3909C102.75 23.9897 102.275 27.1847 102.246 33.4C102.216 27.1847 101.742 23.9897 97.582 20.3909Z" stroke="white" stroke-width="2" stroke-linecap="round" stroke-linejoin="round"/>
<path d="M64.6914 14.9909C67.0997 12.8859 67.3741 11.0172 67.3914 7.38184C67.4087 11.0172 67.6832 12.8859 70.0914 14.9909C67.6832 17.0959 67.4087 18.9647 67.3914 22.6C67.3741 18.9647 67.0997 17.0959 64.6914 14.9909Z" stroke="white" stroke-width="2" stroke-linecap="round" stroke-linejoin="round"/>
</svg>
