<svg width="260" height="151" viewBox="0 0 260 151" fill="none" xmlns="http://www.w3.org/2000/svg">
<path d="M74.7516 68.183L46 69.8105L49.7974 138.163L57.9346 137.996M74.7516 68.183L72.0392 28.5817H174.569V100.19L164.804 99.8795M74.7516 68.183L85.0588 67.5519M129.542 99.1046L131.17 136.536L120.863 136.748M129.542 99.1046L164.804 99.8795M129.542 99.1046L128.321 73.4529M85.0588 67.5519L127.915 64.9281L128.118 67.6405L128.321 73.4529M85.0588 67.5519L83.4314 39.9739L162.634 41.6013L163.719 73.4529M164.804 99.8795L163.719 73.4529M163.719 73.4529H128.321M91.0261 50.281H156.124M57.9346 137.996L55.7647 79.5752L119.235 76.3203L120.863 136.748M57.9346 137.996L120.863 136.748M62.2745 41.0588L50.3399 23.6993M57.9346 47.0261L48.1699 45.3987M167.569 22.6993L165.399 1M177.876 19.9869L182.758 2.62745M184.386 26.4967L197.405 11.3072M95.366 59.5033L144.732 57.8758M73.6667 98.5621C77.5725 95.5242 81.4423 102.721 82.8889 106.699C82.3464 103.264 82.0209 96.3922 85.0588 96.3922C88.0967 96.3922 90.6645 102.179 91.5686 105.072C92.4728 101.094 95.2575 93.1373 99.1634 93.1373C104.046 93.1373 96.451 117.549 92.6536 117.549C89.6157 117.549 88.4946 114.294 88.3137 112.667C87.0479 115.017 83.8654 119.719 81.2614 119.719C78.6575 119.719 75.1133 105.614 73.6667 98.5621ZM107.843 7.96732C111.641 7.96732 110.556 12.8497 107.843 12.8497C105.131 12.8497 104.588 7.96732 107.843 7.96732Z" stroke="white" stroke-width="2" stroke-linecap="round" stroke-linejoin="round"/>
<path d="M145.275 106.157V114.294M145.275 123.516V130.569M149.072 119.176H153.412M137.138 119.176H141.478" stroke="white" stroke-width="2" stroke-linecap="round" stroke-linejoin="round"/>
<path d="M189.758 72.2516L183.249 68.1829L199.523 54.6208L196.268 76.3202L189.758 72.2516ZM189.758 72.2516L182.706 84.4575" stroke="white" stroke-width="2" stroke-linecap="round" stroke-linejoin="round"/>
<path d="M172.398 127.314V136.536M169.144 131.653H175.653M204.405 105.072C203.931 116.239 202.486 120.767 195.183 121.889C203.313 124.464 204.55 128.025 203.32 136.536C204.706 126.546 206.496 123.425 212 123.516C204.694 119.726 204.427 114.59 204.405 105.072Z" stroke="white" stroke-width="2" stroke-linecap="round" stroke-linejoin="round"/>
<path d="M72.0391 28.5815L74.7515 68.1828L85.0587 67.5518L83.4312 39.9737L162.091 41.6012L163.176 73.4527L164.261 99.8794L174.026 100.189V28.5815H72.0391Z" stroke="white" stroke-width="2" stroke-linecap="round" stroke-linejoin="round"/>
<path d="M82.8887 106.699C81.4421 102.721 77.5724 95.524 73.6665 98.5619C75.1131 105.614 78.6574 119.719 81.2613 119.719C83.8652 119.719 87.0478 115.017 88.3136 112.667C88.4944 114.294 89.6155 117.549 92.6534 117.549C96.4508 117.549 104.588 93.1371 99.7057 93.1371C95.7998 93.1371 92.4726 101.094 91.5685 105.072C90.6643 102.178 88.0966 96.392 85.0587 96.392C82.0208 96.392 82.3463 103.263 82.8887 106.699Z" stroke="white" stroke-width="2" stroke-linecap="round" stroke-linejoin="round"/>
</svg>
