<svg width="260" height="150" viewBox="0 0 260 150" fill="none" xmlns="http://www.w3.org/2000/svg">
<path d="M71.2635 128.478L46.9301 129.425C44.2635 114.091 52.5968 82.758 80.5968 83.758C102.997 84.558 107.486 112.98 106.93 127.091L84.2635 127.973M71.2635 128.478C71.0412 125.016 71.9968 118.091 77.5968 118.091C79.3172 118.091 80.6203 118.713 81.5968 119.67M71.2635 128.478L84.2635 127.973M84.2635 127.973C84.3404 125.691 83.7988 121.828 81.5968 119.67M81.5968 119.67L96.2635 98.758M50.2635 124.758H55.2635M52.2635 113.758L57.2635 115.425M58.5968 100.425L61.9301 102.758M65.5968 91.4246L68.5968 95.758M77.5968 93.0913V88.0913M87.9301 95.758L90.5968 92.0913M96.2635 106.091L99.9301 103.425M97.5968 115.425L102.263 113.758M98.5968 123.758H103.263M114.27 124.758C114.41 128.893 114.261 132.763 113.93 136.091L40.5968 137.091C39.055 124.898 39.9885 104.88 49.5859 91.4246M114.27 124.758C160.812 124.631 184.47 124.633 222.93 124.758C221.924 76.0979 221.344 50.928 220.263 12.0913C151.765 11.7915 113.572 12.2287 45.5968 13.4246L49.5859 91.4246M114.27 124.758C113.98 116.188 112.451 106.478 108.742 98.0915M49.5859 91.4246C55.2052 83.5461 63.7948 77.917 76.5968 77.4246C81.2239 77.2466 85.3165 77.803 88.9301 78.9488M185 74.0913C183.531 75.3506 179.782 77.9183 176 78.6488M176 78.6488C175.778 78.6918 175.555 78.7284 175.333 78.758C174.714 78.8406 174.166 78.9539 173.667 79.0922C170.138 80.0702 169.05 82.2978 162.333 83.758C160.205 84.2207 158.564 83.9896 157.333 83.3072M176 78.6488C175.467 85.7615 171.556 97.6852 169.667 102.758H203C202.874 102.126 202.727 101.343 202.566 100.429M190.034 47.0913C189.947 45.0596 189.797 43.1012 189.667 41.758C187.3 43.073 185.646 45.0907 184.538 47.0913M190.034 47.0913C190.171 50.2695 190.155 53.6272 189.667 55.0913C192.778 56.3135 199.133 61.8246 199.667 74.0913C200.124 84.6147 201.596 94.9091 202.566 100.429M190.034 47.0913C195.356 45.758 205.867 46.358 205.333 59.4246C208.667 60.758 215.4 65.6913 215.667 74.758C215.933 83.8246 208.889 87.8691 205.333 88.758C207.889 89.6469 212.6 92.8246 211 98.4246C209.858 102.421 205.932 101.902 202.566 100.429M178.333 55.0913C180.022 54.0015 181.562 53.0658 182.667 52.4246C182.836 51.1857 183.398 49.1475 184.538 47.0913M178.333 55.0913C176.152 56.4987 173.723 58.1631 171.667 59.7816M178.333 55.0913L175.333 51.2493M171.667 59.7816C170.348 60.8191 169.183 61.8379 168.333 62.758C164.333 67.0913 156 68.0913 154.667 73.0913C153.704 76.7029 154.132 81.532 157.333 83.3072M171.667 59.7816L169.674 55.0913M169.674 55.0913L175.333 51.2493M169.674 55.0913L167.124 49.0913M175.333 51.2493L173.32 48.6703M167.124 49.0913L171.306 46.0913M167.124 49.0913L164.433 42.758M171.306 46.0913L167.124 40.7354M171.306 46.0913L173.32 48.6703M164.433 42.758L159.333 30.758L167.124 40.7354M164.433 42.758L167.124 40.7354M184.538 47.0913C182.014 45.0329 176.236 42.4668 173.32 48.6703M160.667 71.0913L158.667 75.0913M157.333 83.3072L164.433 77.4246M58.5968 40.4248C60.1524 37.3137 63.9301 31.3581 66.5968 32.4248C69.9301 33.7581 69.9301 41.0915 73.2635 40.4248C76.5968 39.7581 81.9301 31.0915 84.9301 31.0915C87.9301 31.0915 88.9301 37.7581 91.9301 37.7581C94.9301 37.7581 102.597 28.7581 104.93 28.7581C107.263 28.7581 108.597 35.0915 112.263 34.7581C115.93 34.4248 119.263 29.7581 121.93 29.7581C124.597 29.7581 126.93 34.7581 129.263 34.7581C131.597 34.7581 131.597 29.7581 134.93 29.7581C138.263 29.7581 139.263 33.7581 141.93 32.4248M145.93 32.4248H148.263M60.2635 52.4248H119.597M60.2635 61.4248C87.3746 60.9804 142.197 60.2248 144.597 60.7581M60.2635 70.0915C74.2635 69.647 102.797 68.8248 104.93 69.0915M114.93 69.0915C117.708 69.0915 123.663 69.0915 125.263 69.0915M88.9301 78.9488H134.93M88.9301 78.9488C94.5805 80.7403 99.0598 83.9726 102.58 88.0913M102.58 88.0913H139.93M102.58 88.0913C105.099 91.0386 107.127 94.4397 108.742 98.0915M141.93 88.0913H143.597M108.742 98.0915H126.263M114.27 120C160.812 119.873 184.47 119.875 222.93 120M220.263 21C151.765 20.7002 113.572 21.1374 45.5968 22.3333" stroke="white" stroke-width="2" stroke-linecap="round" stroke-linejoin="round"/>
<path d="M77.5967 118.091C71.9967 118.091 71.0412 125.016 71.2634 128.478L84.2634 127.973C84.3404 125.691 83.7987 121.828 81.5967 119.67C80.6202 118.713 79.3172 118.091 77.5967 118.091Z" stroke="white" stroke-width="2" stroke-linecap="round" stroke-linejoin="round"/>
<ellipse rx="1.43314" ry="2.02706" transform="matrix(0.942397 0.334497 -0.334492 0.942398 176.695 63.0564)" fill="white"/>
</svg>
